<?xml version="1.0" ?><svg id="Layer_1" style="enable-background:new 0 0 512 512;" version="1.1" viewBox="0 0 512 512" xml:space="preserve" xmlns="http://www.w3.org/2000/svg" xmlns:xlink="http://www.w3.org/1999/xlink"><style type="text/css">
	.st0{fill:#D90429;}
</style><g><g><path d="M256,397.9c-38.1,0-73.9-14.8-100.8-41.8c-26.9-26.9-41.8-62.7-41.8-100.8s14.8-73.9,41.8-100.8    c26.9-26.9,62.7-41.8,100.8-41.8s73.9,14.8,100.8,41.8c26.9,26.9,41.8,62.7,41.8,100.8s-14.8,73.9-41.8,100.8    C329.9,383.1,294.1,397.9,256,397.9z M256,132.3c-67.8,0-123,55.2-123,123s55.2,123,123,123c67.8,0,123-55.2,123-123    S323.8,132.3,256,132.3z"/></g><g><circle class="st0" cx="256" cy="255.3" r="23.9"/></g><g><path d="M256,153.1c-5.4,0-9.8-4.4-9.8-9.8v-41.5c0-5.4,4.4-9.8,9.8-9.8c5.4,0,9.8,4.4,9.8,9.8v41.5    C265.8,148.7,261.4,153.1,256,153.1z"/></g><g><path d="M256,420c-5.4,0-9.8-4.4-9.8-9.8v-41.5c0-5.4,4.4-9.8,9.8-9.8c5.4,0,9.8,4.4,9.8,9.8v41.5C265.8,415.6,261.4,420,256,420z    "/></g><g><path d="M410.2,265.8h-41.5c-5.4,0-9.8-4.4-9.8-9.8c0-5.4,4.4-9.8,9.8-9.8h41.5c5.4,0,9.8,4.4,9.8,9.8    C420,261.4,415.6,265.8,410.2,265.8z"/></g><g><path d="M143.3,265.8h-41.5c-5.4,0-9.8-4.4-9.8-9.8c0-5.4,4.4-9.8,9.8-9.8h41.5c5.4,0,9.8,4.4,9.8,9.8    C153.1,261.4,148.7,265.8,143.3,265.8z"/></g></g></svg>