<svg xmlns="http://www.w3.org/2000/svg" xmlns:xlink="http://www.w3.org/1999/xlink" style="" version="1.1" xml:space="preserve" width="128" height="128"><rect id="backgroundrect" width="100%" height="100%" x="0" y="0" fill="none" stroke="none"/><style type="text/css">
	.st0{fill:#725948;}
	.st1{fill:#1C4FBE;}
	.st2{fill:#EE693F;}
	.st3{fill:#FFB8CB;}
	.st4{fill:#F94003;}
	.st5{fill:#DEA740;}
	.st6{fill:#1CB6BE;}
	.st7{fill:#BCCE3E;}
	.st8{fill:#EDEFF2;}
	.st9{fill:#684E3C;}
	.st10{fill:#100F0D;}
	.st11{fill:#5B4332;}
	.st12{fill:#5C7242;}
	.st13{fill:#E1B0AF;}
	.st14{fill:#EC5527;}
	.st15{fill:#057590;}
	.st16{fill:#771C39;}
	.st17{fill:#F8A70C;}
	.st18{fill:#F06522;}
	.st19{fill:#FFFFFF;}
	.st20{fill:#CC7C2C;}
	.st21{fill:#5D6124;}
	.st22{fill:#E6AA30;}
	.st23{fill:#2AB06A;}
	.st24{fill:#1A1613;}
	.st25{fill:none;}
	.st26{fill:#EE4D4C;}
	.st27{fill:#0000FF;}
	.st28{fill:#FC4310;}
	.st29{fill:#03A551;}
	.st30{fill:#E6222A;}
	.st31{fill:#FAFCFB;}
	.st32{fill:#070707;}
	.st33{fill:#BB8B90;}
	.st34{fill:#B298E5;}
	.st35{fill:#19191B;}
</style><g class="currentLayer" style=""><title>Layer 1</title><g id="svg_1"/><g id="svg_2" class="" transform="rotate(-14.34082317352295 29,48.437404632568374) "><polygon class="st8" points="57.70000076293945,58.687403082847595 55.29999923706055,68.88740003108978 48.20000076293945,77.98739850521088 37.79999923706055,83.5874046087265 26,84.38740003108978 6.5,72.6874030828476 0.30000001192092896,51.087400794029236 7.699999809265137,26.587400794029236 28.200000762939453,12.487401366233826 47.29999923706055,22.087400794029236 57.5,41.587400794029236 57.599998474121094,50.187403082847595 57.70000076293945,58.687403082847595 " id="svg_3"/></g><g class="" transform="rotate(-14.34082317352295 98.6063003540039,51.90197753906251) " id="svg_24"><polygon class="st8" points="127.3062973022461,62.15197563171387 124.90630340576172,72.35196495056152 117.8062973022461,81.45196342468262 107.40629959106445,87.05196952819824 95.6063003540039,87.85196495056152 76.1063003540039,76.15196800231934 69.90629959106445,54.55196952819824 77.30630111694336,30.051969528198242 97.80630111694336,15.951967239379883 116.90630340576172,25.551969528198242 127.1063003540039,45.05196952819824 127.206298828125,53.65197563171387 127.3062973022461,62.15197563171387 " id="svg_25"/></g><g id="svg_4"><polygon class="st8" points="125.6,56.9 114.2,77.1 90.2,82.5 71.9,67.6 68.7,44 78.2,23.4 98.5,15.5 116.6,24.6 125.4,42.8    125.5,49.9 125.6,56.9  " id="svg_5"/></g><g id="svg_10" class="selected" transform="rotate(-179.62100219726562 66.00000000000001,110.3499984741211) "><polygon class="st26" points="69,120.2 32.4,118.4 15.6,115.5 11.4,112.8 10.4,107.9 13.1,103.7 17.9,102.7 51.7,105.2    112.9,100.5 117.9,100.6 121.5,103.8 121.6,108.8 118.2,112.4 95,118.6 69,120.2  " id="svg_11"/></g><rect fill="" stroke="#000000" stroke-dashoffset="" fill-rule="nonzero" id="svg_15" x="26.240664248710942" y="25.80284020285704" width="6.744793057441711" height="48" style="color: rgb(0, 0, 0);" class="" transform="rotate(45.51130294799805 29.6130619049072,49.802841186523445) "/><rect fill="" stroke="#000000" stroke-dashoffset="" fill-rule="nonzero" id="svg_17" x="25" y="49" width="1" height="1" style="color: rgb(0, 0, 0);"/><rect fill="" stroke="#000000" stroke-dashoffset="" fill-rule="nonzero" id="svg_20" x="25.316435702764757" y="29.935173748420816" width="6.409252882003784" height="44.750810623168945" style="color: rgb(0, 0, 0);" class="" transform="rotate(-41.99042892456055 28.52106285095216,52.31057739257812) "/><rect fill="" stroke="#000000" stroke-dashoffset="" fill-rule="nonzero" id="svg_22" x="17" y="38" width="0" height="1" style="color: rgb(0, 0, 0);"/><rect fill="" stroke-dashoffset="" fill-rule="nonzero" id="svg_26" x="93.02362251281738" y="28.850393772125244" width="8" height="42" style="color: rgb(0, 0, 0);" class="" transform="rotate(47.2089729309082 97.02362060546876,49.85039520263671) "/><rect fill="" stroke-dashoffset="" fill-rule="nonzero" id="svg_28" x="89.03936958312988" y="27.637795209884644" width="8" height="48" style="color: rgb(0, 0, 0);" class="" transform="rotate(-44.13137435913086 93.03936767578125,51.63779449462889) "/><rect fill="" stroke-dashoffset="" fill-rule="nonzero" id="svg_30" x="108" y="52" width="0" height="0" style="color: rgb(0, 0, 0);"/></g></svg>