<svg xmlns="http://www.w3.org/2000/svg" xmlns:xlink="http://www.w3.org/1999/xlink" style="enable-background:new 0 0 128 128;" version="1.1" xml:space="preserve" width="128" height="128"><rect id="backgroundrect" width="100%" height="100%" x="0" y="0" fill="none" stroke="none"/><style type="text/css">
	.st0{fill:#725948;}
	.st1{fill:#1C4FBE;}
	.st2{fill:#EE693F;}
	.st3{fill:#FFB8CB;}
	.st4{fill:#F94003;}
	.st5{fill:#DEA740;}
	.st6{fill:#1CB6BE;}
	.st7{fill:#BCCE3E;}
	.st8{fill:#EDEFF2;}
	.st9{fill:#684E3C;}
	.st10{fill:#100F0D;}
	.st11{fill:#5B4332;}
	.st12{fill:#5C7242;}
	.st13{fill:#E1B0AF;}
	.st14{fill:#EC5527;}
	.st15{fill:#057590;}
	.st16{fill:#771C39;}
	.st17{fill:#F8A70C;}
	.st18{fill:#F06522;}
	.st19{fill:#FFFFFF;}
	.st20{fill:#CC7C2C;}
	.st21{fill:#5D6124;}
	.st22{fill:#E6AA30;}
	.st23{fill:#2AB06A;}
	.st24{fill:#1A1613;}
	.st25{fill:none;}
	.st26{fill:#EE4D4C;}
	.st27{fill:#0000FF;}
	.st28{fill:#FC4310;}
	.st29{fill:#03A551;}
	.st30{fill:#E6222A;}
	.st31{fill:#FAFCFB;}
	.st32{fill:#070707;}
	.st33{fill:#BB8B90;}
	.st34{fill:#B298E5;}
	.st35{fill:#19191B;}
</style><g class="currentLayer" style=""><title>Layer 1</title><g id="svg_1"/><g id="svg_2"><polygon class="st8" points="57.7,57.9 55.3,68.1 48.2,77.2 37.8,82.8 26,83.6 6.5,71.9 0.3,50.3 7.7,25.8 28.2,11.7 47.3,21.3    57.5,40.8 57.6,49.4 57.7,57.9  " id="svg_3"/></g><g id="svg_4"><polygon class="st8" points="125.6,56.9 114.2,77.1 90.2,82.5 71.9,67.6 68.7,44 78.2,23.4 98.5,15.5 116.6,24.6 125.4,42.8    125.5,49.9 125.6,56.9  " id="svg_5"/></g><g id="svg_6" class=""><polygon class="st10" points="60.21259844303131,58.68740153312683 43.912599205970764,58.68740153312683 43.51259768009186,40.98740077018738 58.61259996891022,41.287400007247925 60.21259844303131,58.68740153312683 " id="svg_7"/></g><g id="svg_8" class="selected"><polygon class="st10" points="123.23779368400574,56.900001525878906 110.03779673576355,60.70000076293945 102.83779215812683,47.29999923706055 113.23779368400574,37.900001525878906 123.03779673576355,42.70000076293945 124.73779368400574,50.099998474121094 123.23779368400574,56.900001525878906 " id="svg_9"/></g><g id="svg_10"><polygon class="st26" points="69,120.2 32.4,118.4 15.6,115.5 11.4,112.8 10.4,107.9 13.1,103.7 17.9,102.7 51.7,105.2    112.9,100.5 117.9,100.6 121.5,103.8 121.6,108.8 118.2,112.4 95,118.6 69,120.2  " id="svg_11"/></g></g></svg>